<svg version="1.1" id="Layer_1" xmlns="http://www.w3.org/2000/svg" xmlns:xlink="http://www.w3.org/1999/xlink" x="0px" y="0px"
	 width="100%" viewBox="0 0 512 512" enable-background="new 0 0 512 512" xml:space="preserve">
<path fill="#000000" opacity="1.000000" stroke="none" 
	d="
M1.000000,204.000000 
	C1.000000,136.000000 1.000000,68.500000 1.000000,1.000000 
	C171.666672,1.000000 342.333344,1.000000 513.000000,1.000000 
	C513.000000,171.666672 513.000000,342.333344 513.000000,513.000000 
	C342.333344,513.000000 171.666672,513.000000 1.000000,513.000000 
	C1.000000,410.166656 1.000000,307.333344 1.000000,204.000000 
M171.982300,230.066360 
	C171.933380,219.043488 171.884445,208.020599 171.975754,196.069992 
	C171.983215,187.941406 171.858963,179.808701 172.113617,171.687866 
	C172.162262,170.136490 173.331863,168.048508 174.630341,167.217285 
	C178.255722,164.896515 182.219986,163.105118 186.752060,160.995758 
	C201.807449,150.886414 210.409546,136.615112 213.974625,118.140167 
	C214.100082,116.849312 214.161911,115.548569 214.360947,114.269157 
	C216.125473,102.926483 214.258362,92.179741 209.020828,81.215729 
	C204.622711,70.495026 197.611084,61.640282 188.194427,55.154701 
	C171.932724,43.954708 153.886780,39.897038 134.550537,45.107750 
	C114.913864,50.399422 99.910431,61.640133 91.254189,81.336815 
	C88.291924,89.298149 85.447281,97.283745 86.031960,106.914490 
	C86.982399,113.289215 87.932838,119.663948 88.984665,126.812607 
	C90.884232,131.296844 92.393410,136.000534 94.764977,140.219452 
	C99.637856,148.888077 105.877777,156.416794 115.251450,161.742065 
	C119.749825,164.148941 124.248207,166.555801 129.163864,169.185944 
	C129.163864,178.204071 129.163864,187.600937 129.027039,197.926895 
	C129.071930,208.615814 129.116806,219.304749 129.027939,230.924271 
	C129.073853,239.950058 129.119751,248.975830 129.028610,258.929779 
	C129.074585,266.287537 129.120560,273.645325 129.027847,281.930878 
	C129.072433,295.953339 129.117035,309.975800 129.026855,324.927826 
	C129.017426,330.075439 128.810059,335.232941 129.065475,340.367371 
	C129.247406,344.024200 128.286560,346.138733 124.433395,347.138580 
	C122.079590,347.749390 120.057930,349.640167 117.173553,351.012634 
	C111.113541,356.338806 104.623116,361.264587 99.155708,367.142029 
	C95.900497,370.641357 94.253304,375.636536 91.239754,380.315765 
	C88.062073,388.585052 85.262794,396.929077 86.027214,406.907471 
	C85.705193,416.475281 87.857452,425.482666 92.230934,434.704498 
	C95.661331,439.817444 98.436401,445.560974 102.640099,449.929840 
	C117.619179,465.497498 135.798599,472.734772 157.730469,470.090179 
	C180.555847,467.337921 196.809052,455.512756 207.989441,435.012146 
	C212.712799,426.272919 214.772186,416.882721 214.980820,406.134399 
	C214.401718,397.102448 213.193222,388.211243 209.017181,379.229218 
	C203.120758,367.295807 195.150131,357.262878 182.770691,350.311035 
	C181.590424,349.771454 180.459305,348.975739 179.221085,348.738068 
	C174.666595,347.863739 174.303619,345.095215 176.131485,341.698486 
	C179.337753,335.740265 182.802643,329.921204 186.782532,323.775726 
	C188.449310,321.760345 189.891785,319.494171 191.819138,317.770111 
	C204.705963,306.242279 219.715881,300.127808 237.147797,299.966278 
	C256.060303,299.791016 275.002472,299.906708 293.872131,298.840851 
	C312.337524,297.797913 329.188629,290.980103 345.476990,281.058197 
	C357.408203,274.408386 367.073181,265.088104 376.754608,254.772812 
	C377.717896,253.471451 378.684296,252.172363 379.643982,250.868362 
	C386.679169,241.309021 393.422455,231.584381 397.691132,219.711945 
	C398.161713,218.326218 398.591309,216.924957 399.109283,215.557205 
	C404.180023,202.168655 406.298645,188.233734 406.975037,173.168930 
	C407.055084,170.646622 406.551758,168.311707 410.031342,166.943359 
	C425.032745,161.044006 435.790741,150.442215 443.168060,135.337585 
	C445.057068,128.558151 446.946075,121.778717 448.974304,114.071831 
	C449.799957,100.658600 448.460144,87.690826 441.007874,75.246895 
	C425.696716,51.749599 404.552612,40.389233 376.160858,43.977474 
	C354.978302,46.654594 339.529663,57.744053 328.248566,76.303574 
	C324.036194,85.762810 319.909058,95.242363 320.850403,106.679848 
	C320.900970,108.900558 320.956512,111.121162 321.001129,113.341988 
	C321.163239,121.410545 323.535126,128.877045 327.252747,136.695099 
	C334.205170,149.734802 343.881256,160.081589 357.573608,166.018814 
	C361.497833,167.720413 363.990295,169.440170 363.032898,174.891159 
	C362.497528,190.110779 357.887268,204.057465 349.287994,217.277054 
	C338.140167,235.307739 321.905945,246.639801 301.510651,253.052277 
	C301.339203,253.086929 301.167755,253.121567 300.461456,253.098709 
	C300.264404,253.385895 300.067383,253.673065 299.041840,253.997986 
	C295.202972,254.666336 291.376831,255.820618 287.523132,255.921234 
	C267.954773,256.432190 248.367004,256.365692 228.812363,257.154236 
	C221.067276,257.466492 213.033447,258.430481 205.763962,260.934814 
	C194.219193,264.911987 183.205536,270.430786 171.834091,275.355072 
	C171.834091,270.192383 171.834091,264.096954 171.977676,257.073914 
	C171.931519,248.380325 171.885361,239.686722 171.982300,230.066360 
z"/>
<path fill="#F37C2B" opacity="1.000000" stroke="none" 
	d="
M129.161636,323.998260 
	C129.117035,309.975800 129.072433,295.953339 129.555206,281.466309 
	C198.860840,281.001129 267.639130,280.996490 336.417419,281.014526 
	C339.243317,281.015259 342.069122,281.228943 344.894989,281.343384 
	C329.188629,290.980103 312.337524,297.797913 293.872131,298.840851 
	C275.002472,299.906708 256.060303,299.791016 237.147797,299.966278 
	C219.715881,300.127808 204.705963,306.242279 191.819138,317.770111 
	C189.891785,319.494171 188.449310,321.760345 185.991516,323.899292 
	C166.520889,324.014679 147.841263,324.006470 129.161636,323.998260 
z"/>
<path fill="#F37528" opacity="1.000000" stroke="none" 
	d="
M345.185974,281.200806 
	C342.069122,281.228943 339.243317,281.015259 336.417419,281.014526 
	C267.639130,280.996490 198.860840,281.001129 129.624542,281.002380 
	C129.120560,273.645325 129.074585,266.287537 129.555176,258.465149 
	C143.999207,258.000854 157.916641,258.001190 171.834091,258.001526 
	C171.834091,264.096954 171.834091,270.192383 171.834091,275.355072 
	C183.205536,270.430786 194.219193,264.911987 205.763962,260.934814 
	C213.033447,258.430481 221.067276,257.466492 228.812363,257.154236 
	C248.367004,256.365692 267.954773,256.432190 287.523132,255.921234 
	C291.376831,255.820618 295.202972,254.666336 299.663330,253.874191 
	C300.549164,253.584915 300.786346,253.386856 300.996338,253.156219 
	C301.167755,253.121567 301.339203,253.086929 302.017334,253.397369 
	C304.580597,254.161560 306.635620,254.935822 308.694092,254.945251 
	C331.171509,255.048355 353.649445,255.031860 376.127258,255.047897 
	C367.073181,265.088104 357.408203,274.408386 345.185974,281.200806 
z"/>
<path fill="#F2491B" opacity="1.000000" stroke="none" 
	d="
M114.953056,161.110458 
	C105.877777,156.416794 99.637856,148.888077 94.764977,140.219452 
	C92.393410,136.000534 90.884232,131.296844 89.410019,126.417427 
	C103.650253,126.015152 117.465477,126.055008 131.279678,125.954361 
	C133.559601,125.937752 135.835022,125.305603 138.485718,124.989853 
	C148.915634,131.122849 162.728394,128.298050 168.583755,118.099976 
	C172.125397,118.413757 175.256409,118.932793 178.391663,118.959763 
	C190.204941,119.061417 202.019623,119.002937 213.833771,119.004410 
	C210.409546,136.615112 201.807449,150.886414 186.058975,160.808777 
	C184.401871,160.419800 183.438156,160.043198 182.473785,160.041489 
	C161.377274,160.004105 140.280624,159.987198 119.184250,160.052200 
	C117.772781,160.056549 116.363411,160.741867 114.953056,161.110458 
z"/>
<path fill="#F23A17" opacity="1.000000" stroke="none" 
	d="
M441.132965,75.954773 
	C448.460144,87.690826 449.799957,100.658600 448.446655,114.535477 
	C433.573364,114.985374 419.227692,114.971626 404.929443,114.536606 
	C404.995117,113.452995 404.858459,112.740250 405.055115,112.135941 
	C407.756622,103.832809 404.122437,97.447662 398.451660,92.093010 
	C393.119537,87.058105 386.663269,85.878601 379.421082,87.817467 
	C369.917267,90.361824 366.207153,97.529213 363.374573,106.004082 
	C349.000000,106.004265 335.083649,106.005051 321.167267,106.005836 
	C319.909058,95.242363 324.036194,85.762810 329.035950,76.138489 
	C366.926514,75.967186 404.029755,75.960983 441.132965,75.954773 
z"/>
<path fill="#F13013" opacity="1.000000" stroke="none" 
	d="
M91.882034,80.961105 
	C99.910431,61.640133 114.913864,50.399422 134.550537,45.107750 
	C153.886780,39.897038 171.932724,43.954708 188.194427,55.154701 
	C197.611084,61.640282 204.622711,70.495026 208.593323,81.596809 
	C174.033707,81.985260 139.901535,82.031891 105.769646,81.953766 
	C101.139709,81.943169 96.511200,81.307404 91.882034,80.961105 
z"/>
<path fill="#F24C1C" opacity="1.000000" stroke="none" 
	d="
M363.167023,174.003815 
	C363.990295,169.440170 361.497833,167.720413 357.573608,166.018814 
	C343.881256,160.081589 334.205170,149.734802 327.667480,136.347946 
	C366.332733,136.001160 404.583221,136.001526 442.833740,136.001892 
	C435.790741,150.442215 425.032745,161.044006 410.031342,166.943359 
	C406.551758,168.311707 407.055084,170.646622 406.446106,173.585327 
	C391.667114,174.002426 377.417084,174.003128 363.167023,174.003815 
z"/>
<path fill="#F5B13B" opacity="1.000000" stroke="none" 
	d="
M207.698441,435.668640 
	C196.809052,455.512756 180.555847,467.337921 157.730469,470.090179 
	C135.798599,472.734772 117.619179,465.497498 102.640099,449.929840 
	C98.436401,445.560974 95.661331,439.817444 92.655670,434.352783 
	C128.770508,434.000793 164.460693,433.966827 200.150482,434.071991 
	C202.668015,434.079376 205.182526,435.112488 207.698441,435.668640 
z"/>
<path fill="#F23A17" opacity="1.000000" stroke="none" 
	d="
M91.568115,81.148956 
	C96.511200,81.307404 101.139709,81.943169 105.769646,81.953766 
	C139.901535,82.031891 174.033707,81.985260 208.642044,81.969360 
	C214.258362,92.179741 216.125473,102.926483 214.360947,114.269157 
	C214.161911,115.548569 214.100082,116.849312 213.904205,118.572289 
	C202.019623,119.002937 190.204941,119.061417 178.391663,118.959763 
	C175.256409,118.932793 172.125397,118.413757 168.622131,117.723846 
	C172.762360,109.659149 171.981018,102.111473 166.726593,95.368652 
	C161.267822,88.363594 153.826309,85.187027 144.917099,87.632004 
	C135.807556,90.131973 130.817688,96.503693 129.373901,106.004349 
	C114.666306,106.003922 100.416840,106.004181 86.167374,106.004433 
	C85.447281,97.283745 88.291924,89.298149 91.568115,81.148956 
z"/>
<path fill="#F5A838" opacity="1.000000" stroke="none" 
	d="
M207.843933,435.340393 
	C205.182526,435.112488 202.668015,434.079376 200.150482,434.071991 
	C164.460693,433.966827 128.770508,434.000793 92.622169,434.001648 
	C87.857452,425.482666 85.705193,416.475281 86.555313,406.454956 
	C101.346466,405.998596 115.609512,405.994781 129.935822,406.419495 
	C128.321014,416.719727 140.035278,427.112030 149.892014,427.164520 
	C159.819443,427.217377 171.194824,418.231201 171.625809,406.003021 
	C180.557175,406.001465 189.032761,405.877991 197.502777,406.042572 
	C203.283600,406.154907 209.056610,406.669495 214.833115,407.004242 
	C214.772186,416.882721 212.712799,426.272919 207.843933,435.340393 
z"/>
<path fill="#F49632" opacity="1.000000" stroke="none" 
	d="
M183.112503,350.956268 
	C195.150131,357.262878 203.120758,367.295807 208.595200,379.602783 
	C169.409882,379.970642 130.646545,379.964935 91.883202,379.959229 
	C94.253304,375.636536 95.900497,370.641357 99.155708,367.142029 
	C104.623116,361.264587 111.113541,356.338806 117.946709,351.072235 
	C125.146439,351.421234 131.576202,352.008789 137.998947,351.940186 
	C153.038589,351.779449 168.074860,351.304169 183.112503,350.956268 
z"/>
<path fill="#F13013" opacity="1.000000" stroke="none" 
	d="
M441.070435,75.600830 
	C404.029755,75.960983 366.926514,75.967186 329.346313,75.961769 
	C339.529663,57.744053 354.978302,46.654594 376.160858,43.977474 
	C404.552612,40.389233 425.696716,51.749599 441.070435,75.600830 
z"/>
<path fill="#F24319" opacity="1.000000" stroke="none" 
	d="
M443.000916,135.669739 
	C404.583221,136.001526 366.332733,136.001160 327.624207,136.001068 
	C323.535126,128.877045 321.163239,121.410545 321.001129,113.341988 
	C320.956512,111.121162 320.900970,108.900558 321.008850,106.342842 
	C335.083649,106.005051 349.000000,106.004265 363.442139,106.420044 
	C364.196747,118.942757 373.342010,128.520248 385.740326,128.085388 
	C395.140015,127.755676 400.426025,122.131676 404.882050,114.957886 
	C419.227692,114.971626 433.573364,114.985374 448.377045,114.999207 
	C446.946075,121.778717 445.057068,128.558151 443.000916,135.669739 
z"/>
<path fill="#F49F35" opacity="1.000000" stroke="none" 
	d="
M91.561478,380.137512 
	C130.646545,379.964935 169.409882,379.970642 208.650070,379.967743 
	C213.193222,388.211243 214.401718,397.102448 214.906967,406.569336 
	C209.056610,406.669495 203.283600,406.154907 197.502777,406.042572 
	C189.032761,405.877991 180.557175,406.001465 171.551971,405.592407 
	C170.420670,393.274567 161.391953,385.712585 150.749985,385.326782 
	C140.795380,384.965881 129.950226,392.460968 129.872559,405.990967 
	C115.609512,405.994781 101.346466,405.998596 86.625412,406.003418 
	C85.262794,396.929077 88.062073,388.585052 91.561478,380.137512 
z"/>
<path fill="#F36B25" opacity="1.000000" stroke="none" 
	d="
M376.440918,254.910355 
	C353.649445,255.031860 331.171509,255.048355 308.694092,254.945251 
	C306.635620,254.935822 304.580597,254.161560 302.273407,253.454422 
	C321.905945,246.639801 338.140167,235.307739 349.982300,217.277740 
	C352.798126,217.518921 354.918457,217.954208 357.041412,217.967316 
	C368.303162,218.036911 379.567383,217.895523 390.826019,218.095245 
	C392.910614,218.132233 394.973389,219.397446 397.046234,220.095779 
	C393.422455,231.584381 386.679169,241.309021 379.643982,250.868362 
	C378.684296,252.172363 377.717896,253.471451 376.440918,254.910355 
z"/>
<path fill="#F25C21" opacity="1.000000" stroke="none" 
	d="
M397.368683,219.903870 
	C394.973389,219.397446 392.910614,218.132233 390.826019,218.095245 
	C379.567383,217.895523 368.303162,218.036911 357.041412,217.967316 
	C354.918457,217.954208 352.798126,217.518921 350.285828,217.113068 
	C357.887268,204.057465 362.497528,190.110779 363.099976,174.447479 
	C377.417084,174.003128 391.667114,174.002426 406.375122,174.002502 
	C406.298645,188.233734 404.180023,202.168655 399.109283,215.557205 
	C398.591309,216.924957 398.161713,218.326218 397.368683,219.903870 
z"/>
<path fill="#F2561F" opacity="1.000000" stroke="none" 
	d="
M115.102249,161.426270 
	C116.363411,160.741867 117.772781,160.056549 119.184250,160.052200 
	C140.280624,159.987198 161.377274,160.004105 182.473785,160.041489 
	C183.438156,160.043198 184.401871,160.419800 185.708191,160.863281 
	C182.219986,163.105118 178.255722,164.896515 174.630341,167.217285 
	C173.331863,168.048508 172.162262,170.136490 172.113617,171.687866 
	C171.858963,179.808701 171.983215,187.941406 171.447540,196.533966 
	C157.000824,196.997894 143.082352,196.997849 129.163864,196.997803 
	C129.163864,187.600937 129.163864,178.204071 129.163864,169.185944 
	C124.248207,166.555801 119.749825,164.148941 115.102249,161.426270 
z"/>
<path fill="#F48C2F" opacity="1.000000" stroke="none" 
	d="
M182.941589,350.633667 
	C168.074860,351.304169 153.038589,351.779449 137.998947,351.940186 
	C131.576202,352.008789 125.146439,351.421234 118.303482,351.043945 
	C120.057930,349.640167 122.079590,347.749390 124.433395,347.138580 
	C128.286560,346.138733 129.247406,344.024200 129.065475,340.367371 
	C128.810059,335.232941 129.017426,330.075439 129.094238,324.463043 
	C147.841263,324.006470 166.520889,324.014679 185.679871,324.033386 
	C182.802643,329.921204 179.337753,335.740265 176.131485,341.698486 
	C174.303619,345.095215 174.666595,347.863739 179.221085,348.738068 
	C180.459305,348.975739 181.590424,349.771454 182.941589,350.633667 
z"/>
<path fill="#F25C21" opacity="1.000000" stroke="none" 
	d="
M129.095459,197.462341 
	C143.082352,196.997849 157.000824,196.997894 171.377411,196.997833 
	C171.884445,208.020599 171.933380,219.043488 171.501465,230.495590 
	C168.055435,230.614151 165.092575,230.064438 162.124649,230.035538 
	C151.137894,229.928543 140.149490,229.993393 129.161697,229.993668 
	C129.116806,219.304749 129.071930,208.615814 129.095459,197.462341 
z"/>
<path fill="#F36B25" opacity="1.000000" stroke="none" 
	d="
M129.094818,230.458969 
	C140.149490,229.993393 151.137894,229.928543 162.124649,230.035538 
	C165.092575,230.064438 168.055435,230.614151 171.429901,230.958984 
	C171.885361,239.686722 171.931519,248.380325 171.905884,257.537720 
	C157.916641,258.001190 143.999207,258.000854 129.623703,258.001068 
	C129.119751,248.975830 129.073853,239.950058 129.094818,230.458969 
z"/>
<path fill="#F24319" opacity="1.000000" stroke="none" 
	d="
M86.099670,106.459457 
	C100.416840,106.004181 114.666306,106.003922 129.446442,106.438293 
	C128.966492,114.575760 133.272354,119.887009 138.112534,124.957916 
	C135.835022,125.305603 133.559601,125.937752 131.279678,125.954361 
	C117.465477,126.055008 103.650253,126.015152 89.359329,126.030457 
	C87.932838,119.663948 86.982399,113.289215 86.099670,106.459457 
z"/>
<path fill="#F36B25" opacity="1.000000" stroke="none" 
	d="
M300.728882,253.127472 
	C300.786346,253.386856 300.549164,253.584915 300.077576,253.855316 
	C300.067383,253.673065 300.264404,253.385895 300.728882,253.127472 
z"/>
<path fill="#000000" opacity="1.000000" stroke="none" 
	d="
M138.485718,124.989838 
	C133.272354,119.887009 128.966492,114.575760 129.904572,106.438972 
	C130.817688,96.503693 135.807556,90.131973 144.917099,87.632004 
	C153.826309,85.187027 161.267822,88.363594 166.726593,95.368652 
	C171.981018,102.111473 172.762360,109.659149 168.213455,117.703171 
	C162.728394,128.298050 148.915634,131.122849 138.485718,124.989838 
z"/>
<path fill="#000000" opacity="1.000000" stroke="none" 
	d="
M404.929443,114.536606 
	C400.426025,122.131676 395.140015,127.755676 385.740326,128.085388 
	C373.342010,128.520248 364.196747,118.942757 363.900299,106.420654 
	C366.207153,97.529213 369.917267,90.361824 379.421082,87.817467 
	C386.663269,85.878601 393.119537,87.058105 398.451660,92.093010 
	C404.122437,97.447662 407.756622,103.832809 405.055115,112.135941 
	C404.858459,112.740250 404.995117,113.452995 404.929443,114.536606 
z"/>
<path fill="#000000" opacity="1.000000" stroke="none" 
	d="
M129.935822,406.419495 
	C129.950226,392.460968 140.795380,384.965881 150.749985,385.326782 
	C161.391953,385.712585 170.420670,393.274567 171.093811,405.593262 
	C171.194824,418.231201 159.819443,427.217377 149.892014,427.164520 
	C140.035278,427.112030 128.321014,416.719727 129.935822,406.419495 
z"/>
</svg>